# xmcd
#
# Track frame offsets: 
#        150
#        22943
#        39907
#        64229
#        88185
#        109052
#        127908
#        162180
#        180296
#        201152
#        225884
#        247432
#        266682
#
# Disc length: 3721 seconds
#
# Revision: 0
# Processed by: cddbd v1.5.2PL0 Copyright (c) Steve Scherf et al.
# Submitted via: ExactAudioCopy v0.99pb5
#
DISCID=a40e870d
DTITLE=Die 4 Pianeure - Big Boss Men
DYEAR=2012
DGENRE=Blues and Boogie
TTITLE0=C-Jam Blues
TTITLE1=Taking Over 2 Pianos
TTITLE2=Bo Diddley
TTITLE3=Sugar In My Bowl
TTITLE4=Hey, Hey
TTITLE5=CC-Rider
TTITLE6=Talk To Me
TTITLE7=Bumble Boogie
TTITLE8=I Get The Blues When It Rains
TTITLE9=Big Boss Men
TTITLE10=Downhearted Blues
TTITLE11=Up and Down
TTITLE12=Boogie Roly Poly
EXTD=
EXTT0=
EXTT1=
EXTT2=
EXTT3=
EXTT4=
EXTT5=
EXTT6=
EXTT7=
EXTT8=
EXTT9=
EXTT10=
EXTT11=
EXTT12=
PLAYORDER=
